<?xml version="1.0"?>
<svg xmlns="http://www.w3.org/2000/svg">
    <svg:style xmlns:svg="http://www.w3.org/2000/svg" type="text/css">

        .i {display:none;}
        .i:target {display:block;}

    </svg:style>
    <style>
        use:not(:target) {
        display: none;
        }
        *{
        fill: #FBFBFB;
        stroke: rgba(0,0,0,0.4);
        stroke-width: .5px;
        }
        use[id$="-native"] {
        fill: ThreeDHighlight;
        }
    </style>
    <svg:svg xmlns:svg="http://www.w3.org/2000/svg" class="i" id="advanced" width="100" height="100" display="inline">
        <path fill="black"
              d="m19.173,16.163c0.004,0.039999 0.007,0.08 0.007,0.121c0,1.747999 -3.197001,3.164999 -7.14,3.164999c-3.943,0 -7.139999,-1.417 -7.139999,-3.164999c0,-0.037001 0.003,-0.073 0.006,-0.109001c-1.796,0.397001 -2.906,1.068001 -2.906,2.166c0,2.021 4.477,3.658998 10,3.658998c5.523002,0 10.000001,-1.637999 10.000001,-3.658998c0,-1.121 -1.077999,-1.788 -2.827002,-2.177999z"/>
        <path fill="black"
              d="m18.224001,15.979c0.005999,-0.11 -0.018002,-0.285 -0.054001,-0.39c0,0 -0.761999,-2.205 -1.176001,-3.403c-0.623999,-1.807 -2.112,-6.139 -2.112,-6.139c-0.036,-0.104 -0.031,-0.273 0.01,-0.376l0.497,-1.234c0.041,-0.102 0.116,-0.266 0.166,-0.364l0.986,-1.942c0.049999,-0.098 0.013,-0.133 -0.081001,-0.077l-6.494999,3.817c-0.095,0.056 -0.203,0.186 -0.24,0.29c0,0 -0.252001,0.7 -0.412001,1.144c-0.672999,1.868001 -1.345,3.735 -2.017,5.603c-0.26,0.723 -0.52,1.446 -0.78,2.168c-0.056,0.156 -0.112,0.311 -0.168,0.466c-0.093,0.26 -0.049,0.617001 0.032,0.881001c0.237,0.763 1.001,1.188999 1.708,1.434999c0.611,0.212999 1.254,0.328001 1.895,0.403c0.895,0.105 1.805,0.139999 2.706,0.112c1.356,-0.040998 2.767,-0.261 4.004001,-0.845999c0.428999,-0.203001 0.854,-0.459 1.174,-0.816c0.121,-0.135 0.226,-0.287001 0.296999,-0.455c0.051001,-0.122 0.060001,-0.277 0.060001,-0.277l0,0zm-4.161001,0.152c0.019,0.108 -0.046,0.156 -0.143,0.104l-1.466,-0.772c-0.097,-0.052 -0.257001,-0.052 -0.354,0l-1.466001,0.773c-0.097,0.052 -0.162,0.004 -0.143,-0.104l0.28,-1.636c0.019,-0.109 -0.031,-0.261001 -0.109,-0.338l-1.186,-1.158c-0.079,-0.077 -0.054,-0.153 0.055,-0.169l1.638,-0.239c0.109,-0.016 0.238,-0.11 0.286,-0.209l0.733,-1.488c0.049001,-0.099001 0.128,-0.099001 0.177,0l0.733,1.488c0.049001,0.099 0.178,0.193 0.286,0.209l1.639,0.239c0.109,0.016 0.134,0.092 0.055,0.169l-1.186,1.158c-0.079,0.077 -0.128,0.229 -0.109,0.338l0.28,1.635l0,0z"/>
    </svg:svg>
    <svg:svg xmlns:svg="http://www.w3.org/2000/svg" class="i" id="applications" width="100" height="100"
             display="inline">
        <g id="svg_1">
            <path d="m16.673,8.914c-0.584,-4.791999 -3.425,-7.914 -4.673,-7.914c-1.25,0 -3.986,3.122 -4.767,7.914l-3.122,3.131001v7.889h2.268l2.978,-3.436001c0.28,0.290001 0.737,1.666 1.065,1.858002h3.155c0.331,-0.193001 0.789001,-1.569 1.068001,-1.858002l3.122999,3.436001h2.120001v-7.84l-3.215,-3.18zm-4.631001,-0.179c-0.604,0 -1.279,0.06 -1.818,0.165c0.478,-1.453 1.345,-3.117 1.781,-3.117c0.434999,0 1.301,1.655 1.775,3.1c-0.514999,-0.094001 -1.165,-0.148001 -1.738,-0.148001l0,0zm0.482,10.410001c0.076,0.195999 0.118999,0.601999 0.118999,0.859999c0,0.660002 -0.523999,1.074001 -0.686999,1.074001c-0.163,0 -0.615001,-0.414 -0.615001,-1.074001c0,-0.257 0.045,-0.664 0.119,-0.859999h-0.754c-0.089001,0.344999 -0.39,1.004999 -0.39,1.407999c0,1.458 1.328,2.447001 1.686,2.447001c0.359,0 1.686,-0.951 1.686,-2.407c0,-0.404001 -0.301,-1.103001 -0.388,-1.449001h-0.776l0,0.001001l0,0z"/>
        </g>
    </svg:svg>
    <svg:svg xmlns:svg="http://www.w3.org/2000/svg" class="i" id="content" width="100" height="100" display="inline">
        <g id="svg_2">
            <path d="m16.285999,2h-10.714999c-1.183,0 -2.142,0.96 -2.142,2.143v15.714c0,1.183001 0.959,2.143 2.142,2.143h12.856999c1.185001,0 2.143,-0.959999 2.143,-2.143v-13.571001l-4.285,-4.286l0,0zm2.659,17.223c0,0.220001 -0.18,0.4 -0.4,0.4h-13.2c-0.22,0 -0.4,-0.179998 -0.4,-0.4v-0.845999c0,-0.220001 0.18,-0.400002 0.4,-0.400002h13.2c0.219999,0 0.4,0.18 0.4,0.400002v0.845999l0,0zm0,-4c0,0.22 -0.18,0.400001 -0.4,0.400001h-13.2c-0.22,0 -0.4,-0.18 -0.4,-0.400001v-0.846c0,-0.22 0.18,-0.4 0.4,-0.4h13.2c0.219999,0 0.4,0.179999 0.4,0.4v0.846l0,0zm0,-3.993999c0,0.22 -0.18,0.4 -0.4,0.4h-13.2c-0.22,0 -0.4,-0.179999 -0.4,-0.4v-0.846c0,-0.22 0.18,-0.400001 0.4,-0.400001h13.2c0.219999,0 0.4,0.18 0.4,0.400001v0.846l0,0zm-4.112,-3.522v-4.65l4.65,4.65h-4.65l0,0z"/>
        </g>
    </svg:svg>
    <svg:svg xmlns:svg="http://www.w3.org/2000/svg" class="i" id="general" width="100" height="100" display="inline">
        <g id="svg_3">
            <path d="m18.969999,3h-13.939999c-1.116,0 -2.03,0.914 -2.03,2.03v13.939999c0,1.116001 0.914,2.030001 2.03,2.030001h13.939999c1.117001,0 2.030001,-0.914 2.030001,-2.030001v-13.939999c0,-1.116 -0.914,-2.03 -2.030001,-2.03zm-13.619999,16.326c-0.404,0 -0.731,-0.327 -0.731,-0.731001c0,-0.403999 0.327,-0.730999 0.731,-0.730999c0.404,0 0.731,0.327 0.731,0.730999c0,0.405001 -0.327,0.731001 -0.731,0.731001zm0,-13.158c-0.403,0 -0.731,-0.328 -0.731,-0.731c0,-0.404 0.328,-0.731 0.731,-0.731c0.403,0 0.731,0.327 0.731,0.731c0,0.403 -0.328,0.731 -0.731,0.731zm9.893,7.867c0,0.229 -0.186,0.416 -0.414,0.416c-0.229,0 -0.415001,0.186 -0.415001,0.414v3.347c0,0.228001 -0.184999,0.384001 -0.414,0.384001l-4.141,0.029999c-0.227,0 -0.414001,-0.185999 -0.414001,-0.414v-3.347c0,-0.228 -0.184999,-0.414 -0.414,-0.414c-0.227,0 -0.414001,-0.187 -0.414001,-0.416v-7.453c0,-0.229 0.187,-0.414 0.414001,-0.414h5.798c0.228,0 0.414,0.185 0.414,0.414v7.453l0,0l0,0zm3.266001,5.291c-0.404001,0 -0.731001,-0.327 -0.731001,-0.731001c0,-0.403999 0.327,-0.730999 0.731001,-0.730999c0.403999,0 0.730999,0.327 0.730999,0.730999c0,0.405001 -0.327,0.731001 -0.730999,0.731001zm0,-13.158c-0.404001,0 -0.731001,-0.328 -0.731001,-0.731c0,-0.404 0.327,-0.731 0.731001,-0.731c0.403999,0 0.730999,0.327 0.730999,0.731c0,0.403 -0.327,0.731 -0.730999,0.731z"/>
            <path d="m12.757,7.824h-1.657c-0.456,0 -0.828,0.373 -0.828,0.828001v8.281999c0,0.455999 0.373,0.827999 0.828,0.827999h1.657c0.456,0 0.828,-0.372999 0.828,-0.827999v-8.281999c0.001,-0.456 -0.372,-0.828001 -0.828,-0.828001z"/>
        </g>
    </svg:svg>
    <svg:svg xmlns:svg="http://www.w3.org/2000/svg" class="i" id="privacy" width="100" height="100" display="inline">
        <g id="svg_5">
            <path d="m21.632,9.541c-0.083,1.403 0.246,3.079 -1.597,5.497999c-1.965,2.578001 -3.914,2.594 -4.283999,2.575001c-2.249001,-0.117001 -2.502001,-1.875 -3.792001,-1.875c-1.129999,0 -2.012,1.744999 -3.710999,1.836c-0.37,0.019999 -2.319,0.042 -4.284,-2.536001c-1.841,-2.419 -1.514,-4.094999 -1.597,-5.497999c-0.08,-1.403001 -0.367,-2.923 -0.367,-2.923s0.887,0.895 2.033,0.973c1.146,0.079 1.361,-0.4 3.778,-1.09c2.613,-0.749 4.189,2.313 4.189,2.313s1.776,-3.016 4.188999,-2.313c2.414001,0.7 2.515001,1.169 3.661001,1.091c1.146,-0.079 2.15,-0.974 2.15,-0.974s-0.287001,1.52 -0.368,2.923l0,0zm-13.515,0.587999c-1.428999,-0.314 -2.027999,0.223001 -2.642,0.451c-0.534,0.202 -1.02,0.264 -1.02,0.264s0.083,0.819 1.515,1.521c1.432,0.703 4.37,0.338 4.37,0.338s0.311,-2.016 -2.223001,-2.574l0,0zm10.408,0.451c-0.612,-0.228 -1.212,-0.765 -2.641999,-0.451c-2.534,0.558001 -2.223001,2.573 -2.223001,2.573s2.938,0.365001 4.370001,-0.337999c1.431999,-0.702001 1.514999,-1.521 1.514999,-1.521s-0.486,-0.061001 -1.02,-0.263l0,0z"/>
        </g>
    </svg:svg>
    <svg:svg xmlns:svg="http://www.w3.org/2000/svg" class="i" id="search" width="100" height="100" display="inline">
        <g id="svg_6">
            <path d="m2,10.018c0,4.43 3.585,8.019001 8.009,8.019001c1.603001,0 3.095,-0.473001 4.348001,-1.285l4.806,4.809999c0.58,0.583 1.523001,0.583 2.105,0l0.296,-0.297001c0.582001,-0.583 0.582001,-1.526999 0,-2.109999l-4.807999,-4.814001c0.799999,-1.247 1.264999,-2.73 1.264999,-4.323c0,-4.43 -3.587,-8.018 -8.012,-8.018c-4.424,0 -8.009,3.589 -8.009,8.018l0,0zm3.104,0.003c0,-2.716 2.196,-4.915 4.906,-4.915c2.71,0 4.908,2.199 4.908,4.915c0,2.712 -2.198,4.911 -4.908,4.911c-2.71,-0.001 -4.906,-2.2 -4.906,-4.911z"/>
        </g>
    </svg:svg>
    <svg:svg xmlns:svg="http://www.w3.org/2000/svg" class="i" id="security" width="100" height="100" display="inline">
        <g id="svg_7">
            <path d="m18.909,9.783h-0.863001v-1.697c0,-3.361001 -2.707,-6.086 -6.046,-6.086c-3.339,0 -6.046,2.725 -6.046,6.086v1.697h-0.863c-0.955,0 -1.728,0.779 -1.728,1.739v8.738c0,0.961 0.773,1.74 1.728,1.74h13.818c0.954,0 1.727999,-0.778999 1.727999,-1.74v-8.738c0,-0.96 -0.773998,-1.739 -1.727999,-1.739l0,0zm-10.364,-1.697c0,-1.920001 1.547,-3.478001 3.455,-3.478001c1.908,0 3.455,1.557 3.455,3.478001v1.697h-6.91v-1.697l0,0zm-3.364,8.005999l-0.909,-1.199999v-2.284l2.728,3.483h-1.819l0,0.000999zm3.637,0l-2.773,-3.656999h1.727l2.864,3.656999h-1.818l0,0zm3.182,0l-2.773,-3.656999h1.727l2.863999,3.656999h-1.818l0,0l0,0zm3.637,0l-2.773,-3.656999h1.726999l2.864,3.656999h-1.818l0,0l0,0zm4.091001,0h-0.455l-2.773001,-3.656999h1.726999l1.501001,1.915999v1.740999l0,0l0,0z"/>
        </g>
    </svg:svg>
    <svg:svg xmlns:svg="http://www.w3.org/2000/svg" class="i" id="sync" width="100" height="100" display="inline">
        <g id="svg_8">
            <path d="m17.024,3.351c-0.562,0.331 -1.311,0.879 -1.821,1.698c-0.367,0.592 -0.752,1.288 -1.08,1.914c0.987,0.413 1.862,1.095 2.476001,2.029c0.613998,0.957001 0.928999,2.122001 0.83,3.351001c-0.201,1.787 -1.359001,3.433 -3.046,4.359999c-0.696,-0.773999 -1.951,-2.944999 -1.951,-2.944999c-0.007,0.007 -0.004,2.555999 -0.871,4.333999c-0.573,1.184 -1.24,2.202002 -2.305,2.995001c1.431001,0.51 2.915,0.886 4.282001,0.909l0.162,0.001999c2.990001,0.021 5.844001,-0.48 5.844001,-0.48c0,0 -1.236,-0.802 -1.808001,-1.345999c1.860001,-1.072001 3.111,-2.791 3.634001,-4.708001c0.282999,-0.759 0.477999,-1.566 0.57,-2.408999c0.442999,-4.044001 -1.610001,-7.777 -4.916,-9.704l0,0zm-10.455,8.951c-0.043,-2.031 1.186,-3.975 3.075,-5.012c0.696,0.774 2.32,2.899 2.32,2.899c0,0 -0.064,-5.157 1.657001,-7.973c-6.097,-0.668 -9.69,0.443 -9.69,0.443c0,0 1.763,0.607 2.333,1.136c-0.142,0.096 -0.28,0.197 -0.414,0.301c-1.45,0.968 -2.482,2.353 -3.025,3.898c-0.389,0.898 -0.654,1.869 -0.765,2.893c-0.438,3.999 1.569,7.685 4.811,9.627999c0.519,-0.390999 1.104,-0.883999 1.739,-1.532c0.579,-0.594 1.037001,-1.301001 1.411,-2.016001c-1.939,-0.758999 -3.307,-2.562999 -3.452,-4.664999l0,0z"/>
        </g>
    </svg:svg>
    <svg:svg xmlns:svg="http://www.w3.org/2000/svg" class="i" id="gear" width="100" height="100" display="inline">
        <g id="svg_9" transform="matrix(0.78262571,0,0,0.78262571,7.5836431e-4,7.5758169e-4)">
            <path d="m 30.561031,17.068031 c 0.064,-0.570999 0.104,-1.148001 0.104,-1.736 0,0 -0.04,-1.166 -0.104,-1.737 0,0 -4.377001,-1.556999 -4.377001,-1.556999 -0.217999,-0.716001 -0.504,-1.401 -0.851,-2.05 0,0 1.993,-4.192 1.993,-4.192 -0.725,-0.91 -1.549,-1.734 -2.458,-2.459 0,0 -4.192999,1.994 -4.192999,1.994 -0.647001,-0.347 -1.334,-0.632 -2.049,-0.849 0,0 -1.558001,-4.378 -1.558001,-4.378 -0.570999,-0.064 -1.148001,-0.105 -1.736,-0.105 0,0 -1.166,0.041 -1.737,0.105 0,0 -1.556,4.378 -1.556,4.378 -0.716,0.217 -1.401,0.502 -2.05,0.849 0,0 -4.192999,-1.994 -4.192999,-1.994 -0.91,0.725 -1.734,1.549 -2.459,2.459 0,0 1.994,4.192 1.994,4.192 -0.347,0.648 -0.632,1.334 -0.849,2.05 0,0 -4.378,1.556999 -4.378,1.556999 -0.064,0.571 -0.105,1.149 -0.105,1.737 0,0 0.041,1.165001 0.105,1.736 0,0 4.378,1.558001 4.378,1.558001 0.217,0.715 0.502,1.400999 0.849,2.049 0,0 -1.994,4.192999 -1.994,4.192999 0.725,0.909 1.549,1.733 2.459,2.458 0,0 4.192,-1.993 4.192,-1.993 0.648,0.347 1.334,0.633001 2.05,0.851 0,0 1.556999,4.377001 1.556999,4.377001 0.571,0.064 1.148001,0.104 1.737,0.104 0.587999,0 1.165001,-0.04 1.736,-0.104 0,0 1.558001,-4.377001 1.558001,-4.377001 0.715,-0.217999 1.399,-0.504 2.049,-0.851 0,0 4.192999,1.993 4.192999,1.993 0.909,-0.725 1.733,-1.549 2.458,-2.458 0,0 -1.993,-4.192999 -1.993,-4.192999 0.347,-0.647001 0.633001,-1.334 0.851,-2.049 0,0 4.377001,-1.558001 4.377001,-1.558001 0,0 0,0 0,0 m -15.229,3.135 c -2.69,0 -4.872,-2.182001 -4.872,-4.871 0,-2.69 2.182,-4.872 4.872,-4.872 2.688999,0 4.871,2.182 4.871,4.872 0,2.688999 -2.182001,4.871 -4.871,4.871 0,0 0,0 0,0" />
        </g>
    </svg:svg>
</svg>
